<svg width="512" height="512" viewBox="0 0 512 512" fill="none" xmlns="http://www.w3.org/2000/svg">
<g clip-path="url(#clip0_1550_443)">
<path d="M0 179.2C0 116.474 0 85.1112 12.2073 61.1531C22.9451 40.0789 40.0789 22.9451 61.1531 12.2073C85.1112 0 116.474 0 179.2 0H332.8C395.526 0 426.889 0 450.847 12.2073C471.921 22.9451 489.055 40.0789 499.793 61.1531C512 85.1112 512 116.474 512 179.2V332.8C512 395.526 512 426.889 499.793 450.847C489.055 471.921 471.921 489.055 450.847 499.793C426.889 512 395.526 512 332.8 512H179.2C116.474 512 85.1112 512 61.1531 499.793C40.0789 489.055 22.9451 471.921 12.2073 450.847C0 426.889 0 395.526 0 332.8V179.2Z" fill="#0150E4"/>
<path d="M358.046 352.932C342.997 352.932 329.266 350.487 316.851 345.596C304.624 340.706 293.996 334.028 284.968 325.563C276.127 316.911 269.261 306.847 264.37 295.373C259.48 283.71 257.034 271.296 257.034 258.128C257.034 242.328 259.95 227.75 265.781 214.394C271.612 201.039 279.701 189.471 290.046 179.689C300.58 169.72 312.619 162.102 326.162 156.835C339.894 151.38 354.66 148.652 370.46 148.652C385.885 148.652 399.711 151.098 411.937 155.988C424.352 160.879 434.886 167.651 443.539 176.304C452.379 184.956 459.151 195.02 463.854 206.494C468.556 217.968 470.908 230.383 470.908 243.739C470.908 259.539 468.086 274.117 462.443 287.473C456.8 300.64 448.899 312.208 438.742 322.178C428.584 331.959 416.64 339.577 402.908 345.032C389.177 350.299 374.222 352.932 358.046 352.932ZM360.021 303.838C367.357 303.838 374.034 302.333 380.054 299.323C386.261 296.125 391.528 291.893 395.854 286.626C400.369 281.171 403.755 274.964 406.012 268.004C408.457 260.856 409.68 253.426 409.68 245.714C409.68 235.368 407.705 226.621 403.755 219.473C399.993 212.325 394.914 206.964 388.518 203.39C382.311 199.628 375.445 197.747 367.921 197.747C360.585 197.747 353.813 199.346 347.606 202.544C341.587 205.554 336.32 209.786 331.805 215.241C327.479 220.696 324.093 226.903 321.648 233.863C319.39 240.823 318.262 248.159 318.262 255.871C318.262 266.217 320.143 274.964 323.905 282.112C327.855 289.26 332.934 294.714 339.141 298.477C345.537 302.051 352.497 303.838 360.021 303.838Z" fill="white"/>
<path d="M152.775 406.829L161.804 349.551H140.36C125.876 349.551 112.897 347.388 101.423 343.062C90.1369 338.735 80.5436 332.716 72.6432 325.004C64.7429 317.292 58.7236 308.263 54.5853 297.917C50.4471 287.383 48.3779 276.003 48.3779 263.776C48.3779 247.035 51.1995 231.893 56.8426 218.349C62.6738 204.618 70.8563 192.861 81.39 183.08C91.9238 173.111 104.339 165.492 118.634 160.225C133.118 154.77 148.919 152.043 166.037 152.043H241.654L234.318 198.599H163.497C155.409 198.599 148.073 200.197 141.489 203.395C135.094 206.405 129.544 210.637 124.842 216.092C120.327 221.547 116.848 227.849 114.402 234.997C112.145 242.144 111.016 249.857 111.016 258.133C111.016 264.717 111.769 270.83 113.274 276.473C114.966 281.928 117.318 286.631 120.327 290.581C123.525 294.531 127.475 297.635 132.178 299.892C136.881 301.961 142.336 302.996 148.543 302.996H169.14L173.09 277.884H144.875L152.211 231.328H237.986L210.335 406.829H152.775Z" fill="white"/>
</g>
<defs>
<clipPath id="clip0_1550_443">
<rect width="512" height="512" fill="white"/>
</clipPath>
</defs>
</svg>
